<?xml version="1.0" encoding="utf-8"?>
<!-- Generator: Adobe Illustrator 26.0.0, SVG Export Plug-In . SVG Version: 6.00 Build 0)  -->
<svg version="1.1" id="Layer_1" xmlns="http://www.w3.org/2000/svg" xmlns:xlink="http://www.w3.org/1999/xlink" x="0px" y="0px"
	 viewBox="0 0 5000 4000" style="enable-background:new 0 0 5000 4000;" xml:space="preserve">
<style type="text/css">
	.st0{fill-rule:evenodd;clip-rule:evenodd;fill:#272525;}
	.st1{fill:none;}
</style>
<g>
	<path class="st0" d="M2785.33,1533.83c123.98,0,224.47,100.49,224.47,224.47c0,123.97-100.49,224.47-224.47,224.47
		c-123.97,0-224.47-100.5-224.47-224.47C2560.86,1634.32,2661.36,1533.83,2785.33,1533.83 M2785.33,1400.53
		c26.25,0,47.54,21.29,47.54,47.55c0,26.24-21.29,47.53-47.54,47.53c-26.25,0-47.54-21.29-47.54-47.53
		C2737.79,1421.82,2759.08,1400.53,2785.33,1400.53z M2785.33,2020.96c26.25,0,47.54,21.29,47.54,47.55
		c0,26.25-21.29,47.53-47.54,47.53c-26.25,0-47.54-21.28-47.54-47.53C2737.79,2042.25,2759.08,2020.96,2785.33,2020.96z
		 M3143.07,1758.3c0,26.25-21.27,47.53-47.53,47.53c-26.25,0-47.54-21.28-47.54-47.53c0-26.26,21.29-47.54,47.54-47.54
		C3121.81,1710.76,3143.07,1732.04,3143.07,1758.3z M2522.66,1758.3c0,26.25-21.29,47.53-47.54,47.53
		c-26.25,0-47.54-21.28-47.54-47.53c0-26.26,21.29-47.54,47.54-47.54C2501.37,1710.76,2522.66,1732.04,2522.66,1758.3z
		 M1499.65,1445.57c0-50.82-41.59-92.4-92.4-92.4h-21.67c-50.82,0-92.4,41.58-92.4,92.4s41.58,92.4,92.4,92.4h21.67
		C1458.07,1537.97,1499.65,1496.39,1499.65,1445.57z M1470.84,2462.01h-21.66c-50.82,0-92.41,41.59-92.41,92.41
		c0,50.83,41.59,92.4,92.41,92.4h21.66c50.81,0,92.4-41.58,92.4-92.4C1563.24,2503.6,1521.65,2462.01,1470.84,2462.01z
		 M2684.43,983.56h201.78v67.17h61.21v59.98h103.21l265.29,459.51l-265.3,835.66h-198.13V2548c0,37.09-30.06,67.16-67.15,67.16
		c-24.49,0-47.44,6.59-67.17,18.11c-39.67,23.13-66.31,66.14-66.31,115.36c0,73.71,59.77,133.47,133.48,133.47
		c73.72,0,133.48-59.76,133.48-133.47v-18.45c0-10.14,8.36-17.33,18.45-18.45l179.62-20.12l-63.69,57.02l-0.06,0.06
		c-0.03,142.72-111.7,259.35-252.45,267.3l0.37,0.44H1557.15c-50.83,0-92.4-41.57-92.4-92.4c0-50.83,41.58-92.41,92.4-92.41h368.78
		c51.04,0,92.42-41.37,92.42-92.4c0-51.03-41.38-92.41-92.42-92.41H1739.2c-50.82,0-92.41-41.58-92.41-92.4
		c0-50.82,41.59-92.41,92.41-92.41h358.17c51.03,0,92.41-41.37,92.41-92.4c0-51.02-41.38-92.4-92.41-92.4h-964.97
		c-50.83,0-92.41-41.58-92.41-92.4c0-50.83,41.58-92.41,92.41-92.41h1115.15c51.04,0,92.41-41.37,92.41-92.4
		c0-51.04-41.37-92.4-92.41-92.4h-702.52c-50.83,0-92.41-41.58-92.41-92.41s41.58-92.4,92.41-92.4h386.99
		c51.03,0,92.4-41.38,92.4-92.41c0-51.03-41.38-92.41-92.4-92.41h-259.57c-50.81,0-92.4-41.58-92.4-92.39
		c0-50.84,41.59-92.41,92.4-92.41h420.36c51.04,0,92.41-41.38,92.41-92.41s-41.37-92.4-92.41-92.4h-863.31
		c-50.83,0-92.41-41.58-92.41-92.39c0-50.83,41.58-92.41,92.41-92.41H2684.43z"/>
</g>
<rect class="st1" width="5000" height="4000"/>
</svg>
