<?xml version="1.0" encoding="utf-8"?>
<!-- Generator: Adobe Illustrator 26.0.0, SVG Export Plug-In . SVG Version: 6.00 Build 0)  -->
<svg version="1.1" id="Layer_1" xmlns="http://www.w3.org/2000/svg" xmlns:xlink="http://www.w3.org/1999/xlink" x="0px" y="0px"
	 viewBox="0 0 5000 4000" style="enable-background:new 0 0 5000 4000;" xml:space="preserve">
<style type="text/css">
	.st0{fill-rule:evenodd;clip-rule:evenodd;fill:#AFECE0;}
	.st1{fill:none;}
</style>
<g>
	<path class="st0" d="M2785.3,1533.8c124,0,224.5,100.5,224.5,224.5c0,124-100.5,224.5-224.5,224.5c-124,0-224.5-100.5-224.5-224.5
		C2560.9,1634.3,2661.4,1533.8,2785.3,1533.8 M2785.3,1400.5c26.2,0,47.5,21.3,47.5,47.6c0,26.2-21.3,47.5-47.5,47.5
		s-47.5-21.3-47.5-47.5C2737.8,1421.8,2759.1,1400.5,2785.3,1400.5z M2785.3,2021c26.2,0,47.5,21.3,47.5,47.6
		c0,26.2-21.3,47.5-47.5,47.5s-47.5-21.3-47.5-47.5C2737.8,2042.2,2759.1,2021,2785.3,2021z M3143.1,1758.3
		c0,26.2-21.3,47.5-47.5,47.5c-26.2,0-47.5-21.3-47.5-47.5c0-26.3,21.3-47.5,47.5-47.5C3121.8,1710.8,3143.1,1732,3143.1,1758.3z
		 M2522.7,1758.3c0,26.2-21.3,47.5-47.5,47.5s-47.5-21.3-47.5-47.5c0-26.3,21.3-47.5,47.5-47.5
		C2501.4,1710.8,2522.7,1732,2522.7,1758.3z M1499.7,1445.6c0-50.8-41.6-92.4-92.4-92.4h-21.7c-50.8,0-92.4,41.6-92.4,92.4
		s41.6,92.4,92.4,92.4h21.7C1458.1,1538,1499.7,1496.4,1499.7,1445.6z M1470.8,2462h-21.7c-50.8,0-92.4,41.6-92.4,92.4
		c0,50.8,41.6,92.4,92.4,92.4h21.7c50.8,0,92.4-41.6,92.4-92.4S1521.7,2462,1470.8,2462z M2684.4,983.6h201.8v67.2h61.2v60h103.2
		l265.3,459.5l-265.3,835.7h-198.1V2548c0,37.1-30.1,67.2-67.1,67.2c-24.5,0-47.4,6.6-67.2,18.1c-39.7,23.1-66.3,66.1-66.3,115.4
		c0,73.7,59.8,133.5,133.5,133.5c73.7,0,133.5-59.8,133.5-133.5v-18.4c0-10.1,8.4-17.3,18.4-18.4l179.6-20.1l-63.7,57l-0.1,0.1
		c0,142.7-111.7,259.4-252.4,267.3l0.4,0.4H1557.2c-50.8,0-92.4-41.6-92.4-92.4c0-50.8,41.6-92.4,92.4-92.4h368.8
		c51,0,92.4-41.4,92.4-92.4c0-51-41.4-92.4-92.4-92.4h-186.7c-50.8,0-92.4-41.6-92.4-92.4c0-50.8,41.6-92.4,92.4-92.4h358.2
		c51,0,92.4-41.4,92.4-92.4c0-51-41.4-92.4-92.4-92.4h-965c-50.8,0-92.4-41.6-92.4-92.4c0-50.8,41.6-92.4,92.4-92.4h1115.1
		c51,0,92.4-41.4,92.4-92.4c0-51-41.4-92.4-92.4-92.4H1545c-50.8,0-92.4-41.6-92.4-92.4s41.6-92.4,92.4-92.4h387
		c51,0,92.4-41.4,92.4-92.4S1983,1538,1932,1538h-259.6c-50.8,0-92.4-41.6-92.4-92.4c0-50.8,41.6-92.4,92.4-92.4h420.4
		c51,0,92.4-41.4,92.4-92.4s-41.4-92.4-92.4-92.4h-863.3c-50.8,0-92.4-41.6-92.4-92.4c0-50.8,41.6-92.4,92.4-92.4L2684.4,983.6
		L2684.4,983.6z"/>
</g>
<rect class="st1" width="16" height="16"/>
</svg>
