<?xml version="1.0" standalone="no"?>
<!DOCTYPE svg PUBLIC "-//W3C//DTD SVG 20010904//EN"
 "http://www.w3.org/TR/2001/REC-SVG-20010904/DTD/svg10.dtd">
<svg version="1.0" xmlns="http://www.w3.org/2000/svg"
 width="700.000000pt" height="700.000000pt" viewBox="0 0 700.000000 700.000000"
 preserveAspectRatio="xMidYMid meet">
<metadata>
Created by potrace 1.14, written by Peter Selinger 2001-2017
</metadata>
<g transform="translate(0.000000,700.000000) scale(0.100000,-0.100000)"
fill="#000000" stroke="none">
<path d="M875 6986 c-107 -34 -179 -106 -201 -201 -3 -11 -6 -592 -6 -1292
l-1 -1272 -66 -26 c-229 -91 -420 -270 -520 -488 -60 -130 -76 -216 -75 -387
1 -185 43 -320 148 -480 290 -442 920 -560 1371 -257 208 140 366 386 400 627
27 186 -17 303 -140 375 -103 60 -253 46 -346 -33 -62 -53 -88 -107 -99 -205
-18 -157 -60 -230 -174 -304 -62 -40 -115 -55 -196 -55 -255 0 -435 239 -351
464 54 141 163 218 340 238 52 6 113 19 137 29 53 24 115 87 145 149 l23 47 0
1100 c1 605 4 1102 7 1105 3 3 17 -3 30 -13 46 -34 675 -498 894 -659 121 -90
312 -231 425 -314 113 -84 367 -271 565 -417 198 -146 365 -270 370 -274 9 -7
393 -291 713 -527 284 -209 498 -368 512 -379 8 -7 47 -35 85 -62 39 -27 75
-54 81 -60 7 -5 108 -81 225 -167 285 -210 1198 -884 1227 -906 l23 -17 0
-952 1 -951 27 -59 c109 -230 452 -221 535 15 13 36 15 191 13 1099 l-2 1058
-23 47 c-21 43 -75 99 -133 140 -13 9 -85 62 -159 118 -74 55 -146 108 -159
118 -13 9 -153 113 -310 230 -355 264 -897 665 -1299 965 -169 125 -397 294
-507 376 -110 82 -274 203 -365 270 -91 67 -172 128 -180 134 -14 11 -430 320
-740 549 -80 59 -149 111 -155 116 -5 4 -84 63 -175 130 -177 131 -582 431
-1120 831 -510 379 -550 408 -593 421 -60 18 -157 21 -202 6z"/>
<path d="M3043 2442 c-94 -33 -160 -102 -187 -194 -10 -33 -12 -268 -12 -1033
l1 -990 28 -57 c31 -64 80 -111 146 -142 46 -21 52 -21 1096 -24 940 -2 1055
-1 1100 14 88 28 164 101 186 178 5 17 9 475 9 1035 l0 1005 -24 52 c-29 63
-79 114 -143 146 l-48 23 -1050 2 c-987 2 -1053 1 -1102 -15z m1775 -1212 l-3
-665 -680 0 c-374 0 -684 1 -690 2 -15 5 -13 1312 2 1321 6 4 318 7 692 7
l681 0 -2 -665z"/>
<path d="M494 2039 c-100 -12 -189 -73 -236 -160 l-23 -44 -3 -796 c-2 -896
-6 -849 74 -938 24 -27 65 -59 91 -72 l48 -24 840 0 c462 0 854 3 871 6 77 16
160 88 199 171 l23 50 1 767 c1 493 -3 784 -10 818 -22 111 -124 205 -238 219
-69 9 -1567 11 -1637 3z m1276 -1016 c0 -355 -3 -453 -12 -454 -50 -4 -922 -3
-928 1 -6 4 -8 905 -2 905 1 0 214 0 472 0 l470 0 0 -452z"/>
</g>
</svg>
